<svg id="Capa_1" enable-background="new 0 0 512 512" height="512" viewBox="0 0 512 512" width="512" xmlns="http://www.w3.org/2000/svg"><g><g><circle cx="256" cy="57.363" fill="#ffdcd5" r="47.343"/><path d="m191.184 175.343v30.877c0 8.64 7.004 15.644 15.644 15.644h98.344c8.64 0 15.644-7.004 15.644-15.644v-30.877c0-35.807-29.035-64.831-64.842-64.816-35.787.014-64.79 29.029-64.79 64.816z" fill="#ffa96b"/><circle cx="74.959" cy="337.479" fill="#ffdcd5" r="47.343"/><path d="m10.143 455.459v30.877c0 8.64 7.004 15.644 15.644 15.644h98.344c8.64 0 15.644-7.004 15.644-15.644v-30.877c0-35.807-29.035-64.831-64.842-64.816-35.787.015-64.79 29.03-64.79 64.816z" fill="#fff2a0"/><circle cx="437.041" cy="337.479" fill="#ffdcd5" r="47.343"/><path d="m372.225 455.459v30.877c0 8.64 7.004 15.644 15.644 15.644h98.344c8.64 0 15.644-7.004 15.644-15.644v-30.877c0-35.807-29.035-64.831-64.842-64.816-35.787.015-64.79 29.03-64.79 64.816z" fill="#ff7d97"/><path d="m265.192 263.345v26.173h-90.673v44.281h32.81 89.827 40.325z" fill="#b8ecbc"/><path d="m174.519 376.904 72.289 70.455v-26.174h90.673v-44.281z" fill="#80b6ff"/></g><g><circle cx="252.243" cy="333.799" r="10"/><path d="m206.828 231.884h98.344c14.151 0 25.663-11.513 25.663-25.663v-30.877c0-19.995-7.788-38.792-21.93-52.928-6.842-6.839-14.78-12.174-23.409-15.876 16.682-10.044 27.866-28.326 27.866-49.177.001-31.63-25.732-57.363-57.362-57.363s-57.363 25.733-57.363 57.363c0 20.865 11.202 39.159 27.904 49.198-26.657 11.463-45.376 37.978-45.376 68.782v30.877c-.001 14.151 11.512 25.664 25.663 25.664zm49.172-211.845c20.58 0 37.324 16.744 37.324 37.324s-16.744 37.324-37.324 37.324-37.324-16.744-37.324-37.324 16.744-37.324 37.324-37.324zm-54.796 155.304c0-30.203 24.571-54.784 54.774-54.796h.023c14.632 0 28.389 5.697 38.738 16.042 10.355 10.351 16.058 24.114 16.058 38.755v30.877c0 3.101-2.523 5.624-5.624 5.624h-98.344c-3.101 0-5.624-2.523-5.624-5.624v-30.878z"/><path d="m104.455 386.656c16.682-10.044 27.867-28.326 27.867-49.176 0-31.63-25.733-57.363-57.363-57.363s-57.363 25.733-57.363 57.363c0 20.865 11.202 39.159 27.904 49.198-26.658 11.462-45.377 37.977-45.377 68.781v30.877c0 14.151 11.513 25.664 25.664 25.664h98.344c14.151 0 25.663-11.513 25.663-25.663v-30.877c0-19.995-7.788-38.792-21.93-52.928-6.841-6.839-14.779-12.175-23.409-15.876zm-29.496-86.5c20.58 0 37.324 16.744 37.324 37.324s-16.744 37.323-37.324 37.323-37.324-16.743-37.324-37.323 16.744-37.324 37.324-37.324zm54.796 186.181c0 3.101-2.523 5.624-5.624 5.624h-98.344c-3.101 0-5.624-2.523-5.624-5.624v-30.877c0-30.203 24.571-54.785 54.774-54.797h.022c14.632 0 28.39 5.697 38.739 16.042 10.355 10.351 16.058 24.114 16.058 38.755v30.877z"/><path d="m489.947 402.532c-6.842-6.839-14.78-12.175-23.41-15.876 16.682-10.044 27.867-28.326 27.867-49.176 0-31.63-25.733-57.363-57.363-57.363s-57.363 25.733-57.363 57.363c0 20.865 11.202 39.159 27.904 49.198-26.657 11.463-45.376 37.978-45.376 68.782v30.877c0 14.151 11.513 25.663 25.663 25.663h98.344c14.151 0 25.663-11.513 25.663-25.663v-30.877c.001-19.996-7.787-38.792-21.929-52.928zm-52.906-102.376c20.58 0 37.324 16.744 37.324 37.324s-16.744 37.323-37.324 37.323-37.324-16.743-37.324-37.323 16.744-37.324 37.324-37.324zm54.797 186.181c0 3.101-2.523 5.624-5.624 5.624h-98.344c-3.101 0-5.624-2.523-5.624-5.624v-30.877c0-30.203 24.571-54.785 54.774-54.797h.023c14.632 0 28.39 5.697 38.739 16.042 10.355 10.351 16.058 24.114 16.058 38.755v30.877z"/><path d="m174.519 343.819h32.811c5.534 0 10.02-4.486 10.02-10.02s-4.486-10.02-10.02-10.02h-22.792v-24.242h80.654c5.533 0 10.02-4.486 10.02-10.02v-2.417l37.634 36.679h-15.69c-5.533 0-10.02 4.486-10.02 10.02s4.486 10.02 10.02 10.02h40.326c4.076 0 7.746-2.469 9.282-6.245 1.535-3.776.63-8.106-2.289-10.951l-72.29-70.454c-2.886-2.812-7.175-3.623-10.887-2.056-3.713 1.566-6.126 5.203-6.126 9.232v16.154h-80.654c-5.533 0-10.02 4.486-10.02 10.02v44.281c0 2.658 1.056 5.206 2.934 7.085 1.881 1.878 4.429 2.934 7.087 2.934z"/><path d="m337.481 366.885h-162.962c-4.076 0-7.746 2.469-9.282 6.245-1.535 3.776-.63 8.106 2.289 10.951l72.29 70.454c1.909 1.86 4.432 2.844 6.995 2.844 1.312 0 2.635-.258 3.891-.788 3.713-1.566 6.126-5.203 6.126-9.232v-16.154h80.654c5.533 0 10.02-4.486 10.02-10.02v-44.281c-.001-5.534-4.487-10.019-10.021-10.019zm-10.019 44.28h-80.654c-5.533 0-10.02 4.486-10.02 10.02v2.417l-37.634-36.679h128.307v24.242z"/></g></g></svg>