<svg id="Capa_1" enable-background="new 0 0 512.003 512.003" height="512" viewBox="0 0 512.003 512.003" width="512" xmlns="http://www.w3.org/2000/svg"><g><g><g><path d="m284.295 193.671c.032-9.365 5.121-17.986 13.314-22.525 26.924-14.916 45.006-43.869 44.331-77.013-.935-45.944-38.454-83.322-84.405-84.117-48.02-.83-87.289 37.762-87.45 85.626-.109 32.231 17.544 60.377 43.75 75.17 8.19 4.623 13.286 13.263 13.255 22.667l-.029 8.586 57.206.193z" fill="#fff2a0"/></g><g><path d="m216.402 202.161h78.383v41.82h-78.383z" fill="#d1aee5" transform="matrix(1 .003 -.003 1 .753 -.86)"/></g><g><g><g><path d="m112.257 287.172h143.745v214.831h-143.745z" fill="#fff2a0"/></g><path d="m256.001 287.172h-143.744l-40 62.411h153.744z" fill="#ff9eb1"/></g><g><g><path d="m256.001 287.172h143.745v214.831h-143.745z" fill="#fff7bf"/></g><g><path d="m256.001 287.172h143.745l40 62.411h-153.745z" fill="#ff7d97"/></g></g></g></g><g><path d="m448.166 344.188-40-62.411c-1.839-2.869-5.012-4.604-8.419-4.604h-287.49c-3.408 0-6.581 1.735-8.419 4.604l-40 62.411c-1.972 3.077-2.108 6.986-.354 10.193s5.118 5.202 8.774 5.202h30v142.42c0 5.522 4.477 10 10 10h287.49c5.522 0 10-4.478 10-10v-142.42h30c3.655 0 7.02-1.995 8.773-5.202s1.617-7.116-.355-10.193zm-330.441-47.016h122.374l-20.386 42.411h-129.17zm272.022 194.831h-123.746v-36.049c0-5.522-4.478-10-10-10-5.523 0-10 4.478-10 10v36.049h-123.744v-132.42h103.745c3.844 0 7.348-2.203 9.013-5.668l10.987-22.858v34.485c0 5.522 4.477 10 10 10 5.522 0 10-4.478 10-10v-34.485l10.987 22.858c1.665 3.465 5.169 5.668 9.013 5.668h103.745zm-97.457-152.42-20.386-42.411h122.374l27.182 42.411z"/><path d="m302.456 179.894c31.25-17.313 50.21-50.252 49.483-85.964-.506-24.82-10.542-48.213-28.262-65.87-17.717-17.655-41.144-27.614-65.969-28.042-25.88-.492-50.336 9.278-68.822 27.387s-28.714 42.331-28.802 68.205c-.117 34.688 18.596 66.841 48.835 83.912 4.64 2.618 7.657 7.324 8.11 12.51l-.524-.002h-.034c-5.507 0-9.981 4.455-10 9.966l-.141 41.819c-.019 5.523 4.443 10.016 9.966 10.034l78.382.265h.034c2.64 0 5.174-1.044 7.047-2.905 1.882-1.869 2.944-4.409 2.953-7.062l.141-41.82c.019-5.522-4.443-10.015-9.967-10.033l-.524-.002c.483-5.185 3.494-9.849 8.094-12.398zm-17.708 54.185-58.382-.196.074-21.82 1.978.007 55.815.189h.035c.019 0 .037 0 .056-.001l.499.002zm-47.682-41.98c-.452-12.421-7.375-23.82-18.315-29.994-23.943-13.517-38.759-38.97-38.667-66.429.069-20.479 8.165-39.65 22.797-53.984 14.31-14.018 33.129-21.688 53.128-21.688.449 0 .902.004 1.353.011 40.304.697 73.76 34.038 74.58 74.322.576 28.275-14.437 54.355-39.179 68.063-10.935 6.058-17.905 17.392-18.436 29.824z"/><path d="m287.818 128.533c.019-5.523-4.443-10.016-9.966-10.034h-.11c-8.425 0-16.102 3.286-21.814 8.645-5.928-5.649-13.665-8.764-21.888-8.792h-.035c-5.506 0-9.98 4.455-9.999 9.966-.019 5.523 4.443 10.016 9.966 10.034 3.18.011 6.166 1.259 8.407 3.515s3.469 5.249 3.458 8.429l-.062 18.376c-.019 5.523 4.443 10.016 9.966 10.034h.035c5.506 0 9.98-4.455 9.999-9.966l.063-18.376c.022-6.551 5.358-11.864 11.904-11.864h.076c5.508-.001 9.981-4.456 10-9.967z"/><g><path d="m256.001 420.933c-4.255 0-8.076-2.79-9.463-6.789-1.373-3.962.005-8.524 3.313-11.094 3.135-2.436 7.532-2.781 11.004-.858 3.639 2.015 5.703 6.265 5.006 10.371-.807 4.756-5.015 8.37-9.86 8.37z"/><g><g><g><g><path d="m401.224 112.433c-.012 0-.023 0-.034 0l-12.793-.043c-5.523-.019-9.985-4.511-9.967-10.033.019-5.512 4.492-9.967 9.999-9.967h.034l12.793.043c5.523.019 9.985 4.511 9.967 10.033-.018 5.512-4.492 9.967-9.999 9.967z"/></g></g><g><g><path d="m375.226 73.622c-2.57 0-5.14-.985-7.095-2.952-3.893-3.919-3.871-10.25.047-14.143l9.076-9.015c3.918-3.893 10.249-3.87 14.142.048s3.871 10.249-.048 14.142l-9.074 9.015c-1.951 1.937-4.5 2.905-7.048 2.905z"/></g></g><g><g><path d="m383.98 160.143c-2.57 0-5.14-.984-7.095-2.952l-9.016-9.075c-3.892-3.918-3.871-10.25.047-14.143 3.918-3.892 10.25-3.872 14.143.047l9.016 9.075c3.892 3.918 3.871 10.25-.047 14.143-1.95 1.937-4.5 2.905-7.048 2.905z"/></g></g></g><g><g><g><path d="m123.573 111.497c-.011 0-.022 0-.034 0l-12.792-.043c-5.523-.019-9.985-4.511-9.966-10.033.019-5.512 4.492-9.967 10-9.967h.034l12.792.043c5.523.019 9.985 4.511 9.966 10.033-.019 5.512-4.493 9.967-10 9.967z"/></g></g><g><g><path d="m127.701 159.278c-2.571 0-5.141-.985-7.096-2.953-3.892-3.919-3.87-10.251.049-14.143l9.076-9.014c3.918-3.892 10.249-3.869 14.142.049 3.892 3.919 3.87 10.251-.049 14.143l-9.076 9.014c-1.95 1.937-4.498 2.904-7.046 2.904z"/></g></g><g><g><path d="m137.038 72.819c-2.57 0-5.14-.984-7.095-2.952l-9.015-9.075c-3.892-3.919-3.871-10.25.047-14.143 3.917-3.893 10.248-3.873 14.142.047l9.015 9.075c3.892 3.919 3.871 10.25-.047 14.143-1.95 1.938-4.499 2.905-7.047 2.905z"/></g></g></g></g></g></g></g></svg>